<?xml version="1.0" encoding="UTF-8"?>
<svg width="168px" height="36px" viewBox="0 0 168 36" version="1.1" xmlns="http://www.w3.org/2000/svg" xmlns:xlink="http://www.w3.org/1999/xlink">
    <title>logo-futurelab-darkbackground-rgb</title>
    <g id="logo-futurelab-darkbackground-rgb" stroke="none" stroke-width="1" fill="none" fill-rule="evenodd">
        <g id="Group-2" fill="#FFFFFF">
            <path d="M45.594,16.2789231 L45.594,15.1449231 L48.132,14.7399231 L48.132,12.0669231 C48.132,10.5909157 48.3569977,9.53792623 48.807,8.90792308 C49.0230011,8.61992164 49.328998,8.37242411 49.725,8.16542308 C50.121002,7.95842204 50.6069971,7.85492308 51.183,7.85492308 C52.587007,7.85492308 53.8739942,8.03492128 55.044,8.39492308 L55.044,9.36692308 L51.2235,9.36692308 C51.016499,9.36692308 50.7825013,9.42542249 50.5215,9.54242308 C50.2604987,9.65942366 50.0670006,9.85292173 49.941,10.1229231 C49.7609991,10.5729253 49.671,11.2209188 49.671,12.0669231 L49.671,14.7399231 L53.937,14.7399231 L53.937,16.2789231 L49.671,16.2789231 L49.671,29.0769231 L48.132,29.0769231 L48.132,16.2789231 L45.594,16.2789231 Z M57.879,14.7399231 L57.879,24.7299231 C57.879,25.6659278 58.1444973,26.4084203 58.6755,26.9574231 C59.2065027,27.5064258 59.9039957,27.7809231 60.768,27.7809231 C61.8480054,27.7809231 62.7029968,27.6729242 63.333,27.4569231 C64.1970043,27.1509215 65.1689946,26.7279258 66.249,26.1879231 L66.249,14.7399231 L67.788,14.7399231 L67.788,29.0769231 L66.735,29.0769231 L66.249,27.4029231 C65.5649966,27.7989251 64.9980023,28.1139219 64.548,28.3479231 C63.3059938,28.9959263 62.0235066,29.3199231 60.7005,29.3199231 C59.3774934,29.3199231 58.320004,28.8699276 57.528,27.9699231 C56.735996,27.0699186 56.34,25.9899294 56.34,24.7299231 L56.34,14.7399231 L57.879,14.7399231 Z M70.164,16.2519231 L70.164,15.1179231 L72.702,14.7129231 L73.107,10.7169231 L74.241,10.7169231 L74.241,14.7129231 L78.615,14.7129231 L78.615,16.2519231 L74.241,16.2519231 L74.241,23.9739231 C74.241,25.3959302 74.4479979,26.3409207 74.862,26.8089231 C75.1860016,27.186925 75.5999975,27.4299225 76.104,27.5379231 C77.4900069,27.8439246 78.2459994,27.9969231 78.372,27.9969231 L78.372,29.0769231 L76.185,29.0769231 C73.8629884,29.0769231 72.702,27.3759401 72.702,23.9739231 L72.702,16.2519231 L70.164,16.2519231 Z M82.557,14.7399231 L82.557,24.7299231 C82.557,25.6659278 82.8224973,26.4084203 83.3535,26.9574231 C83.8845027,27.5064258 84.5819957,27.7809231 85.446,27.7809231 C86.5260054,27.7809231 87.3809969,27.6729242 88.011,27.4569231 C88.8750043,27.1509215 89.8469946,26.7279258 90.927,26.1879231 L90.927,14.7399231 L92.466,14.7399231 L92.466,29.0769231 L91.413,29.0769231 L90.927,27.4029231 C90.2429966,27.7989251 89.6760022,28.1139219 89.226,28.3479231 C87.9839938,28.9959263 86.7015066,29.3199231 85.3785,29.3199231 C84.0554934,29.3199231 82.998004,28.8699276 82.206,27.9699231 C81.413996,27.0699186 81.018,25.9899294 81.018,24.7299231 L81.018,14.7399231 L82.557,14.7399231 Z M96.057,29.0769231 L96.057,14.7399231 L97.11,14.7399231 L97.596,16.5489231 C97.6320002,16.530923 97.7939986,16.4409239 98.082,16.2789231 C98.3700014,16.1169223 98.5454997,16.0179233 98.6085,15.9819231 L99.081,15.7119231 C99.3330013,15.5679224 99.5084995,15.4779233 99.6075,15.4419231 C99.7065005,15.4059229 99.8774988,15.3294237 100.1205,15.2124231 C100.363501,15.0954225 100.552499,15.0189233 100.6875,14.9829231 C100.822501,14.9469229 101.002499,14.8929234 101.2275,14.8209231 C101.452501,14.7489227 101.654999,14.7039232 101.835,14.6859231 C102.357003,14.6139227 102.950997,14.5779231 103.617,14.5779231 C104.283003,14.5779231 104.786998,14.6499224 105.129,14.7939231 L105.129,16.3059231 C104.624997,16.1979225 104.112003,16.1439231 103.59,16.1439231 C103.067997,16.1439231 102.699001,16.152923 102.483,16.1709231 C102.266999,16.1889232 102.078001,16.202423 101.916,16.2114231 C101.753999,16.2204231 101.560501,16.2564228 101.3355,16.3194231 C101.110499,16.3824234 100.944001,16.418423 100.836,16.4274231 C100.727999,16.4364231 100.548001,16.4904226 100.296,16.5894231 C100.043999,16.6884236 99.8820004,16.7514229 99.81,16.7784231 C99.7379996,16.8054232 99.5580014,16.8819224 99.27,17.0079231 C98.9819986,17.1339237 98.8155002,17.2104229 98.7705,17.2374231 C98.7254998,17.2644232 98.5320017,17.3589223 98.19,17.5209231 C97.8479983,17.6829239 97.6500003,17.772923 97.596,17.7909231 L97.596,29.0769231 L96.057,29.0769231 Z M108.558,28.5099231 C107.873997,28.0239206 107.392501,27.2634283 107.1135,26.2284231 C106.834499,25.1934179 106.695,23.9379305 106.695,22.4619231 C106.695,20.9859157 106.74,19.8654269 106.83,19.1004231 C106.92,18.3354193 107.077499,17.6829258 107.3025,17.1429231 C107.527501,16.6029204 107.783999,16.1709247 108.072,15.8469231 C108.360001,15.5229215 108.746998,15.270924 109.233,15.0909231 C110.043004,14.7849215 111.195,14.6319231 112.689,14.6319231 C114.435009,14.6319231 115.622997,14.8029214 116.253,15.1449231 C116.937003,15.5049249 117.404999,15.9999199 117.657,16.6299231 C117.999002,17.421927 118.17,18.3084182 118.17,19.2894231 C118.17,20.270428 118.035001,20.9859208 117.765,21.4359231 C117.224997,22.3179275 116.127008,22.7589231 114.471,22.7589231 L108.234,22.7589231 C108.234,25.2789357 108.692995,26.7909206 109.611,27.2949231 C110.025002,27.5469243 110.627996,27.6729231 111.42,27.6729231 C114.084013,27.6729231 116.243992,27.5559242 117.9,27.3219231 L117.9,28.4559231 C116.117991,28.9599256 114.003012,29.2119231 111.555,29.2119231 C110.240993,29.2119231 109.242003,28.9779254 108.558,28.5099231 Z M108.234,21.2469231 L114.471,21.2469231 C115.173004,21.2469231 115.708498,21.1344242 116.0775,20.9094231 C116.446502,20.684422 116.631,20.2209266 116.631,19.5189231 C116.631,18.8169196 116.572501,18.2364254 116.4555,17.7774231 C116.338499,17.3184208 116.109002,16.9674243 115.767,16.7244231 C115.424998,16.4814219 115.038002,16.3284234 114.606,16.2654231 C114.173998,16.2024228 113.593504,16.1709231 112.8645,16.1709231 C112.135496,16.1709231 111.586502,16.1844229 111.2175,16.2114231 C110.848498,16.2384232 110.475002,16.3104225 110.097,16.4274231 C109.718998,16.5444237 109.431001,16.710922 109.233,16.9269231 C109.034999,17.1429242 108.846001,17.4399212 108.666,17.8179231 C108.377999,18.4659263 108.234,19.6089149 108.234,21.2469231 Z M121.788,25.6749231 L121.788,9.31292308 L123.327,9.31292308 L123.327,25.6749231 C123.327,26.5209273 123.560998,27.0609219 124.029,27.2949231 C124.389002,27.4569239 124.865997,27.5379231 125.46,27.5379231 L133.425,27.5379231 L133.425,29.0769231 L125.46,29.0769231 C123.659991,29.0769231 122.535002,28.5459284 122.085,27.4839231 C121.886999,26.9979206 121.788,26.3949267 121.788,25.6749231 Z M135.747,29.0769231 L143.064,9.31292308 L144.711,9.31292308 L151.677,29.0769231 L149.868,29.0769231 L147.924,23.1099231 L139.662,23.1099231 L137.61,29.0769231 L135.747,29.0769231 Z M140.229,21.5709231 L147.384,21.5709231 L143.874,11.5539231 L140.229,21.5709231 Z M154.809,29.0769231 L154.809,9.31292308 L162.153,9.31292308 C164.745013,9.31292308 166.364997,10.3929123 167.013,12.5529231 C167.193001,13.1109259 167.283,13.7229197 167.283,14.3889231 C167.283,15.5049287 167.035502,16.4589191 166.5405,17.2509231 C166.045498,18.042927 165.348005,18.5559219 164.448,18.7899231 C165.168004,18.9519239 165.833997,19.442419 166.446,20.2614231 C167.058003,21.0804272 167.364,22.1829161 167.364,23.5689231 C167.364,25.0629305 167.022003,26.3229179 166.338,27.3489231 C165.545996,28.5009288 164.15101,29.0769231 162.153,29.0769231 L154.809,29.0769231 Z M156.348,27.5379231 L162.153,27.5379231 C164.601012,27.5379231 165.825,26.1969365 165.825,23.5149231 C165.825,22.3809174 165.496503,21.4269269 164.8395,20.6529231 C164.182497,19.8789192 163.296006,19.4919231 162.18,19.4919231 L156.348,19.4919231 L156.348,27.5379231 Z M165.744,14.2809231 C165.744,11.9949116 164.547012,10.8519231 162.153,10.8519231 L156.348,10.8519231 L156.348,17.9529231 L162.153,17.9529231 C163.269006,17.9529231 164.146497,17.6424262 164.7855,17.0214231 C165.424503,16.40042 165.744,15.4869291 165.744,14.2809231 Z" id="Text-(distance-b)"></path>
            <g id="Group">
                <path d="M0.0236621202,13.7572675 C0.553570898,4.14870387 9.10713459,-1.6153796 18.539778,0.400903521 C22.7929349,1.30797077 26.6828232,3.77956291 29.7217568,6.87693688 C32.7238114,10.069268 34.9188214,13.9875763 35.7014326,18.2292873 C36.4769775,22.4447013 35.7506512,26.7198811 33.41688,30.1793999 C30.7253948,33.8726729 26.4476989,35.9750889 21.6927581,35.9996983 C16.0026635,36.0330968 10.5669589,33.2908364 6.44546182,29.1985045 C2.45903469,24.9936373 -0.28511442,19.3824836 0.0236621202,13.7572675 Z M21.3907917,8.76401789 C19.3649442,8.88349579 17.3355762,9.05396263 15.3009274,9.26828489 C14.8880409,9.32103087 14.5506696,9.56174369 14.4452652,9.95707497 C13.9603137,11.9970898 13.4560698,14.0493335 12.939504,16.1104326 C12.8323042,16.5795591 13.0044928,17.0627769 13.3541508,17.4247246 C15.1779557,19.2468328 16.9753919,21.0970535 18.7429389,22.9719077 C19.0908366,23.3267922 19.5687471,23.5147941 20.0431722,23.4251857 C22.1217219,22.9876858 24.1897804,22.5606929 26.2437217,22.1460343 C26.6460818,22.0528767 26.8938208,21.7243124 26.9640903,21.3254671 C27.2592858,19.3171139 27.5105453,17.3140319 27.7073423,15.3109498 C27.7371963,14.8945342 27.5544814,14.4833545 27.2698474,14.1583044 C25.7376823,12.4785154 24.1563707,10.8426522 22.5328481,9.2472357 C22.2183602,8.95201987 21.8124443,8.74820464 21.3907917,8.76401789 Z" id="Combined-Shape" fill-opacity="0.5"></path>
                <path d="M34.2263299,18.5014491 C33.5248133,14.6992668 31.5592293,11.0243836 28.6399068,7.91610375 C25.6080883,4.82978373 21.9554915,2.66310339 18.2262275,1.86776618 C9.51822547,0.00637943245 1.99108188,5.32311593 1.52140741,13.839481 C1.25440113,18.7037366 3.52858866,23.9342183 7.51843667,28.1500446 C11.5893037,32.18499 16.676275,34.5291171 21.6849949,34.4999916 C25.9767919,34.477506 29.790202,32.5941195 32.1885878,29.3179324 C34.2378035,26.2664966 34.9476351,22.4220486 34.2263299,18.5014491 Z M33.41688,30.1793999 C30.7253948,33.8726729 26.4476989,35.9750889 21.6927581,36 C16.0026635,36.0330968 10.5669589,33.2908364 6.44546182,29.1985045 C2.45903469,24.9936373 -0.28511442,19.3824836 0.0236621202,13.7572675 C0.553570898,4.14870387 9.10713459,-1.6153796 18.539778,0.400903521 C22.7929349,1.30797077 26.6828232,3.77956291 29.7217568,6.87693688 C32.7238114,10.069268 34.9188214,13.9875763 35.7014326,18.2292873 C36.4769775,22.4447013 35.7506512,26.7198811 33.41688,30.1793999 Z" id="Combined-Shape" fill-rule="nonzero"></path>
                <path d="M15.3011099,9.26858819 C14.8882234,9.32133416 14.5508521,9.56204698 14.4454478,9.95737826 C13.9604962,11.9973931 13.4562523,14.0496368 12.9396865,16.1107359 C12.8324867,16.5798624 13.0046753,17.0630802 13.3543333,17.4250279 C15.1781382,19.2471361 16.9755744,21.0973568 18.7431214,22.972211 C19.0910191,23.3270954 19.5689296,23.5150974 20.0433547,23.425489 C22.1219044,22.9879891 24.189963,22.5609961 26.2439042,22.1463376 C26.6462643,22.0531799 26.8940033,21.7246157 26.9642728,21.3257704 C27.2594683,19.3174172 27.5107278,17.3143352 27.7075248,15.3112531 C27.7373788,14.8948375 27.5546639,14.4836578 27.2700299,14.1586076 C25.7378648,12.4788187 24.1565532,10.8429555 22.5330306,9.24753899 C22.2185427,8.95232317 21.8126268,8.74850793 21.3909742,8.76432118 C19.3651267,8.88379908 17.3357587,9.05426592 15.3011099,9.26858819 Z M15.1110307,7.7806803 C17.2419799,7.55584539 19.2910394,7.38556208 21.3026626,7.26692309 C22.1686621,7.23410104 22.9485319,7.58022893 23.5596516,8.15389859 C25.2520406,9.81643937 26.8495552,11.4717583 28.3782689,13.1477633 C28.948735,13.7987644 29.2629998,14.5911659 29.2036847,15.418517 C29.0064401,17.4314852 28.7558668,19.4515691 28.4483275,21.5439025 C28.2684329,22.568472 27.5893777,23.3745019 26.5822461,23.607681 C24.5211944,24.0243884 22.4594514,24.4498084 20.35231,24.8933264 C19.34432,25.0840429 18.3674751,24.7317479 17.6719695,24.0222746 C15.8949853,22.1378264 14.1079922,20.2983195 12.2941668,18.4861816 C11.5784638,17.7456625 11.2543122,16.7527676 11.4773791,15.7765849 C12.033793,13.555142 12.5279008,11.538007 12.986115,9.61046626 C13.2641504,8.56551234 14.1068408,7.9089649 15.1110307,7.7806803 Z" id="Path-Copy-3" fill-rule="nonzero"></path>
            </g>
        </g>
    </g>
</svg>